%TF.GenerationSoftware,KiCad,Pcbnew,(6.0.5-0)*%
%TF.CreationDate,2022-06-27T09:39:38+01:00*%
%TF.ProjectId,M125,4d313235-2e6b-4696-9361-645f70636258,1*%
%TF.SameCoordinates,Original*%
%TF.FileFunction,Legend,Top*%
%TF.FilePolarity,Positive*%
%FSLAX46Y46*%
G04 Gerber Fmt 4.6, Leading zero omitted, Abs format (unit mm)*
G04 Created by KiCad (PCBNEW (6.0.5-0)) date 2022-06-27 09:39:38*
%MOMM*%
%LPD*%
G01*
G04 APERTURE LIST*
%ADD10C,0.150000*%
%ADD11C,0.100000*%
%ADD12C,0.200000*%
G04 APERTURE END LIST*
D10*
X86297619Y-39750000D02*
X87297619Y-39750000D01*
X86583333Y-40083333D01*
X87297619Y-40416666D01*
X86297619Y-40416666D01*
X86678571Y-40892857D02*
X86678571Y-41654761D01*
X86297619Y-42654761D02*
X86297619Y-42083333D01*
X86297619Y-42369047D02*
X87297619Y-42369047D01*
X87154761Y-42273809D01*
X87059523Y-42178571D01*
X87011904Y-42083333D01*
X87202380Y-43035714D02*
X87250000Y-43083333D01*
X87297619Y-43178571D01*
X87297619Y-43416666D01*
X87250000Y-43511904D01*
X87202380Y-43559523D01*
X87107142Y-43607142D01*
X87011904Y-43607142D01*
X86869047Y-43559523D01*
X86297619Y-42988095D01*
X86297619Y-43607142D01*
X87297619Y-44511904D02*
X87297619Y-44035714D01*
X86821428Y-43988095D01*
X86869047Y-44035714D01*
X86916666Y-44130952D01*
X86916666Y-44369047D01*
X86869047Y-44464285D01*
X86821428Y-44511904D01*
X86726190Y-44559523D01*
X86488095Y-44559523D01*
X86392857Y-44511904D01*
X86345238Y-44464285D01*
X86297619Y-44369047D01*
X86297619Y-44130952D01*
X86345238Y-44035714D01*
X86392857Y-43988095D01*
X86345238Y-45702380D02*
X86297619Y-45845238D01*
X86297619Y-46083333D01*
X86345238Y-46178571D01*
X86392857Y-46226190D01*
X86488095Y-46273809D01*
X86583333Y-46273809D01*
X86678571Y-46226190D01*
X86726190Y-46178571D01*
X86773809Y-46083333D01*
X86821428Y-45892857D01*
X86869047Y-45797619D01*
X86916666Y-45750000D01*
X87011904Y-45702380D01*
X87107142Y-45702380D01*
X87202380Y-45750000D01*
X87250000Y-45797619D01*
X87297619Y-45892857D01*
X87297619Y-46130952D01*
X87250000Y-46273809D01*
X86392857Y-47273809D02*
X86345238Y-47226190D01*
X86297619Y-47083333D01*
X86297619Y-46988095D01*
X86345238Y-46845238D01*
X86440476Y-46750000D01*
X86535714Y-46702380D01*
X86726190Y-46654761D01*
X86869047Y-46654761D01*
X87059523Y-46702380D01*
X87154761Y-46750000D01*
X87250000Y-46845238D01*
X87297619Y-46988095D01*
X87297619Y-47083333D01*
X87250000Y-47226190D01*
X87202380Y-47273809D01*
X86583333Y-47654761D02*
X86583333Y-48130952D01*
X86297619Y-47559523D02*
X87297619Y-47892857D01*
X86297619Y-48226190D01*
X86297619Y-49035714D02*
X86297619Y-48559523D01*
X87297619Y-48559523D01*
X86821428Y-49369047D02*
X86821428Y-49702380D01*
X86297619Y-49845238D02*
X86297619Y-49369047D01*
X87297619Y-49369047D01*
X87297619Y-49845238D01*
X86345238Y-50226190D02*
X86297619Y-50369047D01*
X86297619Y-50607142D01*
X86345238Y-50702380D01*
X86392857Y-50750000D01*
X86488095Y-50797619D01*
X86583333Y-50797619D01*
X86678571Y-50750000D01*
X86726190Y-50702380D01*
X86773809Y-50607142D01*
X86821428Y-50416666D01*
X86869047Y-50321428D01*
X86916666Y-50273809D01*
X87011904Y-50226190D01*
X87107142Y-50226190D01*
X87202380Y-50273809D01*
X87250000Y-50321428D01*
X87297619Y-50416666D01*
X87297619Y-50654761D01*
X87250000Y-50797619D01*
X113702380Y-49678571D02*
X112702380Y-49678571D01*
X113702380Y-49107142D01*
X112702380Y-49107142D01*
X113178571Y-48297619D02*
X113178571Y-48630952D01*
X113702380Y-48630952D02*
X112702380Y-48630952D01*
X112702380Y-48154761D01*
X113607142Y-47202380D02*
X113654761Y-47250000D01*
X113702380Y-47392857D01*
X113702380Y-47488095D01*
X113654761Y-47630952D01*
X113559523Y-47726190D01*
X113464285Y-47773809D01*
X113273809Y-47821428D01*
X113130952Y-47821428D01*
X112940476Y-47773809D01*
X112845238Y-47726190D01*
X112750000Y-47630952D01*
X112702380Y-47488095D01*
X112702380Y-47392857D01*
X112750000Y-47250000D01*
X112797619Y-47202380D01*
X113702380Y-45440476D02*
X113226190Y-45773809D01*
X113702380Y-46011904D02*
X112702380Y-46011904D01*
X112702380Y-45630952D01*
X112750000Y-45535714D01*
X112797619Y-45488095D01*
X112892857Y-45440476D01*
X113035714Y-45440476D01*
X113130952Y-45488095D01*
X113178571Y-45535714D01*
X113226190Y-45630952D01*
X113226190Y-46011904D01*
X113178571Y-45011904D02*
X113178571Y-44678571D01*
X113702380Y-44535714D02*
X113702380Y-45011904D01*
X112702380Y-45011904D01*
X112702380Y-44535714D01*
X113416666Y-44154761D02*
X113416666Y-43678571D01*
X113702380Y-44250000D02*
X112702380Y-43916666D01*
X113702380Y-43583333D01*
X113702380Y-43250000D02*
X112702380Y-43250000D01*
X112702380Y-43011904D01*
X112750000Y-42869047D01*
X112845238Y-42773809D01*
X112940476Y-42726190D01*
X113130952Y-42678571D01*
X113273809Y-42678571D01*
X113464285Y-42726190D01*
X113559523Y-42773809D01*
X113654761Y-42869047D01*
X113702380Y-43011904D01*
X113702380Y-43250000D01*
X113178571Y-42250000D02*
X113178571Y-41916666D01*
X113702380Y-41773809D02*
X113702380Y-42250000D01*
X112702380Y-42250000D01*
X112702380Y-41773809D01*
X113702380Y-40773809D02*
X113226190Y-41107142D01*
X113702380Y-41345238D02*
X112702380Y-41345238D01*
X112702380Y-40964285D01*
X112750000Y-40869047D01*
X112797619Y-40821428D01*
X112892857Y-40773809D01*
X113035714Y-40773809D01*
X113130952Y-40821428D01*
X113178571Y-40869047D01*
X113226190Y-40964285D01*
X113226190Y-41345238D01*
D11*
%TO.C,U1*%
X96357142Y-40253964D02*
X96392857Y-40218250D01*
X96464285Y-40182535D01*
X96642857Y-40182535D01*
X96714285Y-40218250D01*
X96750000Y-40253964D01*
X96785714Y-40325392D01*
X96785714Y-40396821D01*
X96750000Y-40503964D01*
X96321428Y-40932535D01*
X96785714Y-40932535D01*
X97250000Y-40182535D02*
X97321428Y-40182535D01*
X97392857Y-40218250D01*
X97428571Y-40253964D01*
X97464285Y-40325392D01*
X97500000Y-40468250D01*
X97500000Y-40646821D01*
X97464285Y-40789678D01*
X97428571Y-40861107D01*
X97392857Y-40896821D01*
X97321428Y-40932535D01*
X97250000Y-40932535D01*
X97178571Y-40896821D01*
X97142857Y-40861107D01*
X97107142Y-40789678D01*
X97071428Y-40646821D01*
X97071428Y-40468250D01*
X97107142Y-40325392D01*
X97142857Y-40253964D01*
X97178571Y-40218250D01*
X97250000Y-40182535D01*
X97785714Y-40253964D02*
X97821428Y-40218250D01*
X97892857Y-40182535D01*
X98071428Y-40182535D01*
X98142857Y-40218250D01*
X98178571Y-40253964D01*
X98214285Y-40325392D01*
X98214285Y-40396821D01*
X98178571Y-40503964D01*
X97750000Y-40932535D01*
X98214285Y-40932535D01*
X98500000Y-40253964D02*
X98535714Y-40218250D01*
X98607142Y-40182535D01*
X98785714Y-40182535D01*
X98857142Y-40218250D01*
X98892857Y-40253964D01*
X98928571Y-40325392D01*
X98928571Y-40396821D01*
X98892857Y-40503964D01*
X98464285Y-40932535D01*
X98928571Y-40932535D01*
X99250000Y-40646821D02*
X99821428Y-40646821D01*
X100321428Y-40182535D02*
X100392857Y-40182535D01*
X100464285Y-40218250D01*
X100500000Y-40253964D01*
X100535714Y-40325392D01*
X100571428Y-40468250D01*
X100571428Y-40646821D01*
X100535714Y-40789678D01*
X100500000Y-40861107D01*
X100464285Y-40896821D01*
X100392857Y-40932535D01*
X100321428Y-40932535D01*
X100250000Y-40896821D01*
X100214285Y-40861107D01*
X100178571Y-40789678D01*
X100142857Y-40646821D01*
X100142857Y-40468250D01*
X100178571Y-40325392D01*
X100214285Y-40253964D01*
X100250000Y-40218250D01*
X100321428Y-40182535D01*
X101214285Y-40182535D02*
X101071428Y-40182535D01*
X101000000Y-40218250D01*
X100964285Y-40253964D01*
X100892857Y-40361107D01*
X100857142Y-40503964D01*
X100857142Y-40789678D01*
X100892857Y-40861107D01*
X100928571Y-40896821D01*
X101000000Y-40932535D01*
X101142857Y-40932535D01*
X101214285Y-40896821D01*
X101250000Y-40861107D01*
X101285714Y-40789678D01*
X101285714Y-40611107D01*
X101250000Y-40539678D01*
X101214285Y-40503964D01*
X101142857Y-40468250D01*
X101000000Y-40468250D01*
X100928571Y-40503964D01*
X100892857Y-40539678D01*
X100857142Y-40611107D01*
X101607142Y-40646821D02*
X102178571Y-40646821D01*
X102500000Y-40253964D02*
X102535714Y-40218250D01*
X102607142Y-40182535D01*
X102785714Y-40182535D01*
X102857142Y-40218250D01*
X102892857Y-40253964D01*
X102928571Y-40325392D01*
X102928571Y-40396821D01*
X102892857Y-40503964D01*
X102464285Y-40932535D01*
X102928571Y-40932535D01*
X103607142Y-40182535D02*
X103250000Y-40182535D01*
X103214285Y-40539678D01*
X103250000Y-40503964D01*
X103321428Y-40468250D01*
X103500000Y-40468250D01*
X103571428Y-40503964D01*
X103607142Y-40539678D01*
X103642857Y-40611107D01*
X103642857Y-40789678D01*
X103607142Y-40861107D01*
X103571428Y-40896821D01*
X103500000Y-40932535D01*
X103321428Y-40932535D01*
X103250000Y-40896821D01*
X103214285Y-40861107D01*
D12*
X106500000Y-38893250D02*
X106500000Y-39593250D01*
X106500000Y-49693250D02*
X105600000Y-49693250D01*
X106500000Y-48793250D02*
X106500000Y-49693250D01*
X93500000Y-49693250D02*
X94400000Y-49693250D01*
X93500000Y-48793250D02*
X93500000Y-49693250D01*
X93500000Y-38893250D02*
X93500000Y-39593250D01*
%TD*%
M02*
